<svg width="900" height="900" viewBox="0 0 900 900" fill="none" xmlns="http://www.w3.org/2000/svg">
  <defs>
    <filter id="catShadow" x="140" y="104" width="620" height="700" filterUnits="userSpaceOnUse" color-interpolation-filters="sRGB">
      <feDropShadow dx="0" dy="18" stdDeviation="18" flood-color="#26384D" flood-opacity="0.18"/>
    </filter>
  </defs>
  <g filter="url(#catShadow)" stroke="#44576B" stroke-width="10" stroke-linecap="round" stroke-linejoin="round">
    <path d="M338 246L404 166L428 300L338 246Z" fill="#E5D8E5"/>
    <path d="M562 246L496 166L472 300L562 246Z" fill="#E5D8E5"/>
    <path d="M368 238L400 202L410 264L368 238Z" fill="#FFF3F7"/>
    <path d="M532 238L500 202L490 264L532 238Z" fill="#FFF3F7"/>
    <path d="M450 222C366 222 298 290 298 374C298 442 342 496 402 514C354 530 320 572 320 624C320 690 378 740 450 740C522 740 580 690 580 624C580 572 546 530 498 514C558 496 602 442 602 374C602 290 534 222 450 222Z" fill="#E8DCE7"/>
    <circle cx="378" cy="392" r="54" fill="#F4ECF2"/>
    <circle cx="522" cy="392" r="54" fill="#F4ECF2"/>
    <circle cx="450" cy="382" r="66" fill="#FAF5F8"/>
    <circle cx="392" cy="456" r="56" fill="#F4ECF2"/>
    <circle cx="508" cy="456" r="56" fill="#F4ECF2"/>
    <circle cx="450" cy="446" r="70" fill="#FFF9FC"/>
    <circle cx="402" cy="618" r="52" fill="#F4ECF2"/>
    <circle cx="498" cy="618" r="52" fill="#F4ECF2"/>
    <circle cx="450" cy="634" r="70" fill="#FFF9FC"/>
    <circle cx="392" cy="410" r="12" fill="#2E3F52" stroke="none"/>
    <circle cx="508" cy="410" r="12" fill="#2E3F52" stroke="none"/>
    <path d="M434 438L450 452L466 438" fill="none"/>
    <path d="M418 466C436 482 464 482 482 466" fill="none"/>
    <path d="M350 402L288 388" fill="none"/>
    <path d="M348 432H284" fill="none"/>
    <path d="M550 402L612 388" fill="none"/>
    <path d="M552 432H616" fill="none"/>
    <circle cx="352" cy="474" r="16" fill="#F1CAD7" stroke="none"/>
    <circle cx="548" cy="474" r="16" fill="#F1CAD7" stroke="none"/>
    <path d="M340 540L296 614" fill="none"/>
    <path d="M560 540L604 614" fill="none"/>
    <path d="M410 726L392 792" fill="none"/>
    <path d="M490 726L508 792" fill="none"/>
  </g>
</svg>
