<svg width="900" height="900" viewBox="0 0 900 900" fill="none" xmlns="http://www.w3.org/2000/svg">
  <defs>
    <filter id="rabbitShadow" x="138" y="80" width="624" height="722" filterUnits="userSpaceOnUse" color-interpolation-filters="sRGB">
      <feDropShadow dx="0" dy="18" stdDeviation="18" flood-color="#26384D" flood-opacity="0.18"/>
    </filter>
  </defs>
  <g filter="url(#rabbitShadow)" stroke="#44576B" stroke-width="10" stroke-linecap="round" stroke-linejoin="round">
    <rect x="360" y="110" width="82" height="262" rx="41" fill="#EFD8E8"/>
    <rect x="458" y="110" width="82" height="262" rx="41" fill="#EFD8E8"/>
    <rect x="388" y="146" width="26" height="188" rx="13" fill="#FFF4F8"/>
    <rect x="486" y="146" width="26" height="188" rx="13" fill="#FFF4F8"/>
    <path d="M450 230C366 230 298 296 298 380C298 446 340 498 398 516C352 530 320 570 320 620C320 684 378 732 450 732C522 732 580 684 580 620C580 570 548 530 502 516C560 498 602 446 602 380C602 296 534 230 450 230Z" fill="#F4DFEB"/>
    <circle cx="378" cy="388" r="54" fill="#F8E9F0"/>
    <circle cx="522" cy="388" r="54" fill="#F8E9F0"/>
    <circle cx="450" cy="378" r="66" fill="#FBF3F7"/>
    <circle cx="392" cy="450" r="56" fill="#F8E9F0"/>
    <circle cx="508" cy="450" r="56" fill="#F8E9F0"/>
    <circle cx="450" cy="440" r="70" fill="#FFF9FC"/>
    <circle cx="402" cy="612" r="52" fill="#F8E9F0"/>
    <circle cx="498" cy="612" r="52" fill="#F8E9F0"/>
    <circle cx="450" cy="628" r="70" fill="#FFF9FC"/>
    <circle cx="392" cy="408" r="12" fill="#2E3F52" stroke="none"/>
    <circle cx="508" cy="408" r="12" fill="#2E3F52" stroke="none"/>
    <ellipse cx="450" cy="438" rx="17" ry="13" fill="#2E3F52" stroke="none"/>
    <path d="M416 466C436 484 464 484 484 466" fill="none"/>
    <circle cx="350" cy="472" r="16" fill="#F3C2D3" stroke="none"/>
    <circle cx="550" cy="472" r="16" fill="#F3C2D3" stroke="none"/>
    <path d="M340 534L292 610" fill="none"/>
    <path d="M560 534L608 610" fill="none"/>
    <path d="M410 718L394 790" fill="none"/>
    <path d="M490 718L506 790" fill="none"/>
  </g>
</svg>
