<svg width="640" height="480" viewBox="0 0 640 480" fill="none" xmlns="http://www.w3.org/2000/svg">
  <defs>
    <linearGradient id="g-bg-3" x1="30" y1="18" x2="610" y2="462" gradientUnits="userSpaceOnUse">
      <stop stop-color="#E7F4FF"/>
      <stop offset="1" stop-color="#FFE6F0"/>
    </linearGradient>
    <filter id="shadow-soft-3" x="44" y="60" width="556" height="352" filterUnits="userSpaceOnUse" color-interpolation-filters="sRGB">
      <feDropShadow dx="0" dy="14" stdDeviation="16" flood-color="#23384B" flood-opacity="0.12"/>
    </filter>
  </defs>

  <rect width="640" height="480" rx="30" fill="url(#g-bg-3)"/>
  <circle cx="112" cy="92" r="30" fill="#DFF1FF"/>
  <circle cx="544" cy="390" r="42" fill="#FFDCEB"/>

  <g filter="url(#shadow-soft-3)">
    <rect x="70" y="92" width="228" height="164" rx="18" fill="#FFFFFF"/>
    <rect x="92" y="122" width="184" height="12" rx="6" fill="#DDEBF7"/>
    <rect x="92" y="144" width="132" height="10" rx="5" fill="#E8F2FA"/>
    <rect x="92" y="172" width="184" height="58" rx="12" fill="#EAF4FF"/>
    <path d="M126 202L146 222L184 184" stroke="#607A97" stroke-width="8" stroke-linecap="round" stroke-linejoin="round"/>
  </g>

  <g filter="url(#shadow-soft-3)">
    <rect x="202" y="268" width="156" height="118" rx="14" fill="#FFFFFF" stroke="#5E7793" stroke-width="4"/>
    <path d="M202 302H358" stroke="#5E7793" stroke-width="4"/>
    <path d="M280 268V386" stroke="#5E7793" stroke-width="4"/>
    <circle cx="246" cy="330" r="8" fill="#FFD8E8"/>
    <circle cx="314" cy="330" r="8" fill="#DFF2FF"/>
  </g>

  <g filter="url(#shadow-soft-3)">
    <rect x="352" y="236" width="202" height="114" rx="18" fill="#5D7491"/>
    <rect x="486" y="264" width="86" height="86" rx="16" fill="#768CA7"/>
    <rect x="370" y="256" width="108" height="56" rx="10" fill="#E6F3FF"/>
    <circle cx="402" cy="368" r="24" fill="#24384A"/>
    <circle cx="402" cy="368" r="11" fill="#FFFFFF"/>
    <circle cx="522" cy="368" r="24" fill="#24384A"/>
    <circle cx="522" cy="368" r="11" fill="#FFFFFF"/>
  </g>

  <path d="M78 404H562" stroke="#9FB8CD" stroke-width="6" stroke-linecap="round"/>
</svg>
