<svg width="640" height="480" viewBox="0 0 640 480" fill="none" xmlns="http://www.w3.org/2000/svg">
  <defs>
    <linearGradient id="g-bg-1" x1="48" y1="28" x2="592" y2="452" gradientUnits="userSpaceOnUse">
      <stop stop-color="#EAF6FF"/>
      <stop offset="1" stop-color="#FFE7F1"/>
    </linearGradient>
    <linearGradient id="g-phone" x1="108" y1="76" x2="332" y2="396" gradientUnits="userSpaceOnUse">
      <stop stop-color="#24313F"/>
      <stop offset="1" stop-color="#4B5D73"/>
    </linearGradient>
    <filter id="shadow-soft-1" x="60" y="40" width="532" height="404" filterUnits="userSpaceOnUse" color-interpolation-filters="sRGB">
      <feDropShadow dx="0" dy="14" stdDeviation="18" flood-color="#2A3950" flood-opacity="0.14"/>
    </filter>
  </defs>

  <rect width="640" height="480" rx="30" fill="url(#g-bg-1)"/>
  <circle cx="94" cy="94" r="34" fill="#D9EEFF"/>
  <circle cx="548" cy="392" r="44" fill="#FFD8E8"/>

  <g filter="url(#shadow-soft-1)">
    <rect x="92" y="62" width="246" height="356" rx="30" fill="url(#g-phone)"/>
    <rect x="108" y="96" width="214" height="286" rx="18" fill="#FFFFFF"/>
    <rect x="188" y="78" width="54" height="8" rx="4" fill="#D7E4F0"/>
    <rect x="206" y="392" width="18" height="8" rx="4" fill="#9CB2C8"/>

    <rect x="126" y="118" width="76" height="76" rx="14" fill="#E7F4FF"/>
    <circle cx="164" cy="155" r="22" fill="#FFD6E8"/>
    <circle cx="156" cy="150" r="3.5" fill="#2A3B4C"/>
    <circle cx="172" cy="150" r="3.5" fill="#2A3B4C"/>
    <path d="M156 164C161 170 167 170 172 164" stroke="#2A3B4C" stroke-width="2.8" stroke-linecap="round"/>

    <rect x="212" y="126" width="90" height="12" rx="6" fill="#DDECF8"/>
    <rect x="212" y="146" width="70" height="10" rx="5" fill="#E8F3FA"/>
    <rect x="126" y="218" width="176" height="10" rx="5" fill="#E8F3FA"/>
    <rect x="126" y="236" width="160" height="10" rx="5" fill="#E8F3FA"/>
    <rect x="126" y="254" width="184" height="10" rx="5" fill="#E8F3FA"/>
    <rect x="126" y="282" width="110" height="36" rx="12" fill="#627A95"/>
  </g>

  <g filter="url(#shadow-soft-1)">
    <rect x="356" y="134" width="212" height="220" rx="24" fill="#FFFFFF"/>
    <rect x="378" y="158" width="92" height="34" rx="12" fill="#E5F2FF"/>
    <path d="M396 175H452" stroke="#5C738D" stroke-width="3" stroke-linecap="round"/>
    <circle cx="518" cy="178" r="26" fill="#FFD8E8"/>
    <path d="M510 178L516 184L528 170" stroke="#5C738D" stroke-width="4" stroke-linecap="round" stroke-linejoin="round"/>

    <rect x="378" y="208" width="168" height="50" rx="14" fill="#F4FAFF"/>
    <rect x="392" y="224" width="112" height="10" rx="5" fill="#DDECF8"/>
    <rect x="392" y="240" width="78" height="8" rx="4" fill="#E8F3FA"/>

    <circle cx="430" cy="302" r="34" fill="#FFD8E8"/>
    <circle cx="488" cy="302" r="34" fill="#DDF2FF"/>
    <circle cx="459" cy="330" r="34" fill="#FFF8FC" stroke="#D9EAF7" stroke-width="4"/>
    <circle cx="446" cy="326" r="4" fill="#253747"/>
    <circle cx="472" cy="326" r="4" fill="#253747"/>
    <path d="M446 342C454 350 464 350 472 342" stroke="#253747" stroke-width="3" stroke-linecap="round"/>
  </g>
</svg>
