<svg width="640" height="480" viewBox="0 0 640 480" fill="none" xmlns="http://www.w3.org/2000/svg">
  <defs>
    <linearGradient id="g-bg-4" x1="34" y1="20" x2="606" y2="460" gradientUnits="userSpaceOnUse">
      <stop stop-color="#E4F2FF"/>
      <stop offset="1" stop-color="#FFE8F2"/>
    </linearGradient>
    <filter id="shadow-soft-4" x="58" y="52" width="524" height="380" filterUnits="userSpaceOnUse" color-interpolation-filters="sRGB">
      <feDropShadow dx="0" dy="14" stdDeviation="16" flood-color="#25384B" flood-opacity="0.12"/>
    </filter>
  </defs>

  <rect width="640" height="480" rx="30" fill="url(#g-bg-4)"/>
  <circle cx="104" cy="108" r="34" fill="#DDF1FF"/>
  <circle cx="536" cy="94" r="28" fill="#FFE0EC"/>

  <g filter="url(#shadow-soft-4)">
    <rect x="82" y="292" width="476" height="122" rx="24" fill="#FFFFFF"/>
    <rect x="324" y="318" width="178" height="14" rx="7" fill="#E1EDF8"/>
    <rect x="324" y="342" width="208" height="12" rx="6" fill="#EAF3FA"/>
    <rect x="324" y="364" width="162" height="12" rx="6" fill="#F1F7FC"/>
  </g>

  <g filter="url(#shadow-soft-4)">
    <circle cx="318" cy="126" r="54" fill="#FFD7E8"/>
    <circle cx="296" cy="118" r="7" fill="#26384A"/>
    <circle cx="340" cy="118" r="7" fill="#26384A"/>
    <path d="M296 140C308 154 328 154 340 140" stroke="#26384A" stroke-width="5" stroke-linecap="round"/>

    <rect x="228" y="168" width="180" height="154" rx="24" fill="#FFD8E8"/>
    <rect x="180" y="228" width="86" height="86" rx="18" fill="#FFF8FC" stroke="#637C98" stroke-width="4"/>
    <rect x="370" y="228" width="86" height="86" rx="18" fill="#FFF8FC" stroke="#637C98" stroke-width="4"/>

    <circle cx="224" cy="272" r="28" fill="#FFE7F1"/>
    <circle cx="414" cy="272" r="28" fill="#E3F3FF"/>
    <path d="M214 272L222 280L236 264" stroke="#607A97" stroke-width="4" stroke-linecap="round" stroke-linejoin="round"/>
    <path d="M404 272L412 280L426 264" stroke="#607A97" stroke-width="4" stroke-linecap="round" stroke-linejoin="round"/>

    <circle cx="318" cy="252" r="40" fill="#FFFFFF" stroke="#DBECF8" stroke-width="4"/>
    <circle cx="302" cy="246" r="4" fill="#26384A"/>
    <circle cx="334" cy="246" r="4" fill="#26384A"/>
    <path d="M302 262C311 271 325 271 334 262" stroke="#26384A" stroke-width="3" stroke-linecap="round"/>
  </g>

  <g fill="#FFDCEB">
    <circle cx="502" cy="150" r="10"/>
    <circle cx="528" cy="172" r="6"/>
    <circle cx="114" cy="154" r="8"/>
  </g>
</svg>
