<svg width="900" height="900" viewBox="0 0 900 900" fill="none" xmlns="http://www.w3.org/2000/svg">
  <defs>
    <linearGradient id="bgCat" x1="128" y1="96" x2="764" y2="786" gradientUnits="userSpaceOnUse">
      <stop stop-color="#DDF0FA"/>
      <stop offset="1" stop-color="#F8E1EA"/>
    </linearGradient>
    <filter id="shadowCat" x="154" y="118" width="594" height="664" filterUnits="userSpaceOnUse" color-interpolation-filters="sRGB">
      <feDropShadow dx="0" dy="18" stdDeviation="22" flood-color="#314457" flood-opacity="0.16"/>
    </filter>
  </defs>

  <rect width="900" height="900" rx="120" fill="url(#bgCat)"/>
  <circle cx="212" cy="206" r="50" fill="#E2F1FC"/>
  <circle cx="704" cy="702" r="44" fill="#F7DDE9"/>

  <g filter="url(#shadowCat)">
    <path d="M330 254L396 178L420 304L330 254Z" fill="#E8D9E6"/>
    <path d="M570 254L504 178L480 304L570 254Z" fill="#E8D9E6"/>
    <path d="M356 248L394 210L406 274L356 248Z" fill="#FFF8FC"/>
    <path d="M544 248L506 210L494 274L544 248Z" fill="#FFF8FC"/>

    <circle cx="450" cy="378" r="156" fill="#E8D9E6"/>
    <circle cx="450" cy="604" r="116" fill="#E8D9E6"/>
    <ellipse cx="450" cy="426" rx="102" ry="90" fill="#FFF9FC" stroke="#D7E8F4" stroke-width="8"/>
    <ellipse cx="450" cy="592" rx="80" ry="72" fill="#FFF9FC" stroke="#D7E8F4" stroke-width="8"/>
    <circle cx="404" cy="404" r="10" fill="#314457"/>
    <circle cx="496" cy="404" r="10" fill="#314457"/>
    <path d="M438 434L450 446L462 434" stroke="#314457" stroke-width="8" stroke-linecap="round" stroke-linejoin="round"/>
    <path d="M416 458C434 474 466 474 484 458" stroke="#314457" stroke-width="8" stroke-linecap="round"/>
    <path d="M362 402L300 390" stroke="#314457" stroke-width="6" stroke-linecap="round"/>
    <path d="M360 428L294 428" stroke="#314457" stroke-width="6" stroke-linecap="round"/>
    <path d="M538 402L600 390" stroke="#314457" stroke-width="6" stroke-linecap="round"/>
    <path d="M540 428L606 428" stroke="#314457" stroke-width="6" stroke-linecap="round"/>
    <path d="M360 520L320 590" stroke="#DDC6D7" stroke-width="26" stroke-linecap="round"/>
    <path d="M540 520L580 590" stroke="#DDC6D7" stroke-width="26" stroke-linecap="round"/>
    <path d="M408 692L390 768" stroke="#DDC6D7" stroke-width="26" stroke-linecap="round"/>
    <path d="M492 692L510 768" stroke="#DDC6D7" stroke-width="26" stroke-linecap="round"/>
  </g>
</svg>
