<svg width="900" height="900" viewBox="0 0 900 900" fill="none" xmlns="http://www.w3.org/2000/svg">
  <defs>
    <linearGradient id="bgRabbit" x1="114" y1="86" x2="790" y2="792" gradientUnits="userSpaceOnUse">
      <stop stop-color="#E9E0F6"/>
      <stop offset="1" stop-color="#DDF2FB"/>
    </linearGradient>
    <filter id="shadowRabbit" x="144" y="74" width="612" height="722" filterUnits="userSpaceOnUse" color-interpolation-filters="sRGB">
      <feDropShadow dx="0" dy="18" stdDeviation="22" flood-color="#314357" flood-opacity="0.16"/>
    </filter>
  </defs>

  <rect width="900" height="900" rx="120" fill="url(#bgRabbit)"/>
  <circle cx="204" cy="720" r="42" fill="#F6DCE8"/>
  <circle cx="714" cy="174" r="56" fill="#D8EDFA"/>

  <g filter="url(#shadowRabbit)">
    <rect x="362" y="126" width="82" height="248" rx="40" fill="#F2D9E8"/>
    <rect x="456" y="126" width="82" height="248" rx="40" fill="#F2D9E8"/>
    <rect x="386" y="158" width="34" height="180" rx="17" fill="#FFF8FC"/>
    <rect x="480" y="158" width="34" height="180" rx="17" fill="#FFF8FC"/>

    <circle cx="450" cy="388" r="154" fill="#F2D9E8"/>
    <circle cx="450" cy="612" r="118" fill="#F2D9E8"/>
    <ellipse cx="450" cy="432" rx="108" ry="92" fill="#FFF9FC" stroke="#D7E8F4" stroke-width="8"/>
    <ellipse cx="450" cy="604" rx="86" ry="78" fill="#FFF9FC" stroke="#D7E8F4" stroke-width="8"/>
    <circle cx="404" cy="410" r="10" fill="#314457"/>
    <circle cx="496" cy="410" r="10" fill="#314457"/>
    <circle cx="450" cy="438" r="11" fill="#314457"/>
    <path d="M414 460C432 476 468 476 486 460" stroke="#314457" stroke-width="8" stroke-linecap="round"/>
    <path d="M358 524L314 594" stroke="#E7C6D8" stroke-width="26" stroke-linecap="round"/>
    <path d="M542 524L586 594" stroke="#E7C6D8" stroke-width="26" stroke-linecap="round"/>
    <path d="M408 704L394 780" stroke="#E7C6D8" stroke-width="26" stroke-linecap="round"/>
    <path d="M492 704L506 780" stroke="#E7C6D8" stroke-width="26" stroke-linecap="round"/>
  </g>
</svg>
